<!--
	"Pancakes" icon by Kokota at NounProject.com is licensed under CC BY. My modifications include additional optimization and recoloring.
	Source: https://thenounproject.com/icon/pancakes-1974111/
	License: https://creativecommons.org/licenses/by/3.0/
 -->
<svg id="logo-icon" version="1.1" width="72" height="55" viewBox="0 0 72 55" xmlns="http://www.w3.org/2000/svg">
  <style>
    #logo-icon .pancake {
			<!-- Use primary color from theme if it exists. Otherwise, revert back to hsl(45 100% 51%) -->
      fill: hsl(var(--p, 45 100% 51%));
    }
		#logo-icon .cherry {
			<!-- Use secondary color from theme if it exists. Otherwise, revert back to hsl(340 82% 52%) -->
			fill: hsl(var(--s, 340 82% 52%))
		}
  </style>

	<!-- Specify default colors for apps that do not support CSS styles -->
	<g class="cherry" fill="#E91E63" stroke-width=".16">
		<path d="m45 18c-0.55 0-1-0.069-1.6-0.14-4.9-0.82-8.1-5.5-7.2-10 0.89-4.9 5.5-8.1 10-7.2 2.3 0.41 4.4 1.7 5.8 3.6 1.4 1.9 1.9 4.3 1.5 6.7-0.41 2.3-1.7 4.4-3.6 5.8-1.6 1.1-3.4 1.6-5.2 1.6zm-0.069-14c-2.3 0-4.3 1.6-4.7 4-0.48 2.6 1.3 5.1 3.9 5.6 1.2 0.21 2.5-0.069 3.6-0.82s1.8-1.9 2-3.1c0.21-1.2-0.069-2.5-0.82-3.6s-1.9-1.8-3.1-2c-0.27-0.069-0.55-0.069-0.82-0.069z"/>
		<path d="m46 2.1c-3.7-0.69-7.3 1.9-8 5.6-0.69 3.7 1.9 7.3 5.6 8 3.7 0.69 7.3-1.9 8-5.6 0.62-3.7-1.9-7.3-5.6-8zm-1.6 6.3c-0.069 0.069-0.21 0.21-0.34 0.27-0.14 0.069-0.21 0.14-0.34 0.21-0.14 0.069-0.27 0.069-0.41 0.14-0.14 0-0.27 0.069-0.41 0.069-0.14 0-0.27 0-0.41-0.069-0.14 0-0.27-0.069-0.41-0.14-0.14-0.069-0.27-0.14-0.34-0.21-0.14-0.069-0.21-0.14-0.27-0.27-0.41-0.41-0.62-0.89-0.62-1.4 0-0.14 0-0.27 0.069-0.41 0-0.14 0.069-0.27 0.14-0.41 0.069-0.14 0.14-0.21 0.21-0.34 0.069-0.14 0.14-0.21 0.27-0.34 0.75-0.75 2.1-0.75 2.9 0 0.069 0.069 0.21 0.21 0.27 0.34 0.069 0.14 0.14 0.21 0.21 0.34 0.069 0.14 0.069 0.27 0.14 0.41 0 0.14 0.069 0.27 0.069 0.41-0.069 0.55-0.27 1-0.69 1.4z"/>
		<path d="m34 0.49c-3.7-0.69-7.3 1.9-8 5.6-0.27 1.6 0.069 3.3 0.82 4.7 0.96 1.6 2.7 2.9 4.7 3.3 3.7 0.69 7.3-1.9 8-5.6 0.69-3.8-1.9-7.3-5.6-8zm-1.6 6.2c-0.069 0.069-0.21 0.21-0.34 0.27-0.14 0.069-0.21 0.14-0.34 0.21-0.14 0.069-0.27 0.069-0.41 0.14-0.14 0-0.27 0.069-0.41 0.069-0.55 0-1.1-0.21-1.4-0.62-0.41-0.41-0.62-0.89-0.62-1.4 0-0.14 0-0.27 0.069-0.41 0-0.14 0.069-0.27 0.14-0.41 0.069-0.14 0.14-0.21 0.21-0.34 0.069-0.14 0.14-0.21 0.27-0.27 0.48-0.48 1.2-0.69 1.9-0.55 0.14 0 0.27 0.069 0.41 0.14 0.14 0.069 0.27 0.14 0.34 0.21 0.14 0.069 0.21 0.14 0.34 0.27l0.27 0.27c0.069 0.14 0.14 0.21 0.21 0.34 0.069 0.14 0.069 0.27 0.14 0.41 0 0.14 0.069 0.27 0.069 0.41-0.14 0.41-0.34 0.89-0.75 1.3z"/>
	</g>
	<g class="pancake" fill="#FFC107" stroke-width=".16">
		<path d="m60 53h-53c-2.3 0-4.1-1.9-4.1-4.1s1.9-4.1 4.1-4.1h53c2.3 0 4.1 1.9 4.1 4.1s-1.9 4.1-4.1 4.1z"/>
		<path d="m58 55h-56c-1.2 0-2.1-0.89-2.1-2.1 0-1.2 0.89-2.1 2.1-2.1h56c1.2 0 2.1 0.89 2.1 2.1 0 1.2-0.89 2.1-2.1 2.1z"/>
		<path d="m70 55h-50c-1.2 0-2.1-0.89-2.1-2.1 0-1.2 0.89-2.1 2.1-2.1h50c1.2 0 2.1 0.89 2.1 2.1 0 1.2-0.89 2.1-2.1 2.1z"/>
		<path d="m7.9 27c-2.3-0.21-4.3 1.5-4.5 3.8-0.21 2.3 1.5 4.3 3.8 4.5l27 2.3 0.14-8.2z"/>
		<path d="m52 39 8.3 0.75c2.3 0.21 4.3-1.5 4.5-3.8 0.21-2.3-1.5-4.3-3.8-4.5l-7-0.62v4.9c0 1.4-0.82 2.6-2 3.2z"/>
		<path d="m51 42h-0.55c-2.8-0.27-4.9-2.7-4.9-5.6v-0.27c0-1.2 0.89-2.1 2.1-2.1s2.1 0.89 2.1 2.1v0.27c0 0.75 0.55 1.4 1.2 1.5 0.55 0.069 0.89-0.21 1-0.34 0.27-0.27 0.48-0.62 0.48-1v-6.3c0-1.6 0.69-3.1 1.9-4.1s2.8-1.4 4.4-1.2l5.8 1c0.48 0.069 0.89 0 1.2-0.27 0.27-0.27 0.48-0.69 0.48-1.2 0-1.3-1.1-2.7-2.4-2.9l-52-9.1c-1.2-0.21-2.3 0.48-2.5 1.6-0.14 0.55 0 1.1 0.34 1.6 0.34 0.48 0.82 0.75 1.4 0.89l21 3.6c2.6 0.48 4.5 2.7 4.5 5.3v13c0 1.2-0.89 2.1-2.1 2.1-1.2 0-2.1-0.89-2.1-2.1v-13c0-0.62-0.41-1.2-1-1.2l-21-3.6c-1.6-0.27-3.1-1.2-4-2.6-0.96-1.4-1.3-3.1-0.96-4.7 0.69-3.2 3.9-5.4 7.3-4.8l52 9.1c3.3 0.55 5.8 3.6 5.8 6.9 0 1.7-0.69 3.3-1.9 4.3-1.2 1-2.9 1.4-4.6 1.2l-5.8-1c-0.48-0.069-0.89 0.14-1 0.27-0.14 0.14-0.48 0.48-0.48 0.96v6.3c0 1.5-0.69 3-1.8 4-1 0.96-2.3 1.4-3.7 1.4z"/>
		<path d="m37 48h-0.55c-2.8-0.27-4.9-2.7-4.9-5.6v-11c0-1.2 0.89-2.1 2.1-2.1 1.2 0 2.1 0.89 2.1 2.1v11c0 0.75 0.55 1.4 1.2 1.5 0.55 0.069 0.89-0.21 1.1-0.34 0.27-0.27 0.48-0.62 0.48-1v-15c0-1.6 0.69-3.1 1.9-4.1s2.8-1.4 4.4-1.2c2.6 0.48 4.5 2.7 4.5 5.3 0 1.2-0.89 2.1-2.1 2.1-1.2 0-2.1-0.89-2.1-2.1 0-0.62-0.41-1.2-1-1.2-0.48-0.069-0.89 0.14-1 0.27-0.14 0.14-0.48 0.48-0.48 0.96v15c0 1.5-0.69 3-1.8 4-1.1 0.96-2.4 1.4-3.8 1.4z"/>
		<path d="m47 38c-1.2 0-2.1-0.89-2.1-2.1v-8.2c0-1.2 0.89-2.1 2.1-2.1 1.2 0 2.1 0.89 2.1 2.1v8.2c0 1.2-0.89 2.1-2.1 2.1z"/>
	</g>
</svg>
